<svg xmlns="http://www.w3.org/2000/svg" viewBox="0 0 64 64" width="64" height="64"><circle cx="32" cy="32" r="31.4" fill="#1a1f2b"/><circle cx="32" cy="32" r="25.5" fill="none" stroke="#f0ead9" stroke-width="1.3"/><path d="M10.135,41.000 L17.569,41.000 L17.569,40.490 C15.563,40.331 15.242,40.010 15.217,38.083 L15.217,32.575 L23.320,32.575 L23.320,37.790 C23.291,40.064 23.053,40.356 20.967,40.490 L20.967,41.000 L28.402,41.000 L28.402,40.490 C26.396,40.331 26.074,40.010 26.049,38.083 L26.049,26.210 C26.074,24.258 26.342,23.990 28.402,23.802 L28.402,23.293 L20.967,23.293 L20.967,23.802 C23.023,23.961 23.291,24.229 23.320,26.210 L23.320,31.396 L15.217,31.396 L15.217,26.210 C15.242,24.258 15.509,23.990 17.569,23.802 L17.569,23.293 L10.135,23.293 L10.135,23.802 C12.191,23.961 12.458,24.229 12.488,26.210 L12.488,37.790 C12.458,40.064 12.220,40.356 10.135,40.490 L10.135,41.000 Z M53.865,23.293 L48.570,23.293 L48.570,23.802 C49.933,23.936 50.413,24.229 50.413,24.952 C50.413,25.487 50.255,26.210 49.987,26.958 L46.644,36.027 L43.112,26.903 C42.924,26.423 42.845,26.210 42.790,26.101 C42.552,25.541 42.389,25.031 42.389,24.739 C42.389,24.095 43.004,23.827 44.450,23.802 L44.450,23.293 L37.307,23.293 L37.307,23.802 C38.833,23.827 39.100,24.070 40.011,26.210 L40.893,28.404 L38.030,35.943 L34.177,25.888 C33.993,25.407 33.884,24.952 33.884,24.659 C33.884,24.070 34.261,23.907 35.623,23.802 L35.623,23.293 L29.070,23.293 L29.070,23.802 C30.432,23.936 30.834,24.417 31.824,26.933 L36.985,41.293 L37.387,41.293 L41.507,29.979 L45.787,41.293 L46.188,41.293 C48.487,34.288 48.675,33.724 51.646,25.700 C52.152,24.308 52.449,24.070 53.865,23.802 L53.865,23.293 Z" fill="#f0ead9"/></svg>