<svg xmlns="http://www.w3.org/2000/svg" viewBox="0 0 250 61" width="250" height="61"><path d="M8.00,42.15 L21.90,42.15 L21.90,41.20 C18.15,40.90 17.55,40.30 17.50,36.70 L17.50,26.40 L32.65,26.40 L32.65,36.15 C32.59,40.40 32.15,40.95 28.25,41.20 L28.25,42.15 L42.15,42.15 L42.15,41.20 C38.40,40.90 37.80,40.30 37.75,36.70 L37.75,14.50 C37.80,10.85 38.30,10.35 42.15,10.00 L42.15,9.05 L28.25,9.05 L28.25,10.00 C32.09,10.30 32.59,10.80 32.65,14.50 L32.65,24.20 L17.50,24.20 L17.50,14.50 C17.55,10.85 18.05,10.35 21.90,10.00 L21.90,9.05 L8.00,9.05 L8.00,10.00 C11.84,10.30 12.34,10.80 12.40,14.50 L12.40,36.15 C12.34,40.40 11.90,40.95 8.00,41.20 L8.00,42.15 Z M89.75,9.05 L79.85,9.05 L79.85,10.00 C82.40,10.25 83.30,10.80 83.30,12.15 C83.30,13.15 83.00,14.50 82.50,15.90 L76.25,32.85 L69.65,15.80 C69.30,14.90 69.15,14.50 69.05,14.30 C68.60,13.25 68.30,12.30 68.30,11.75 C68.30,10.55 69.44,10.05 72.15,10.00 L72.15,9.05 L58.80,9.05 L58.80,10.00 C61.65,10.05 62.15,10.50 63.85,14.50 L65.50,18.60 L60.15,32.70 L52.94,13.90 C52.60,13.00 52.40,12.15 52.40,11.60 C52.40,10.50 53.10,10.20 55.65,10.00 L55.65,9.05 L43.40,9.05 L43.40,10.00 C45.94,10.25 46.69,11.15 48.55,15.85 L58.19,42.70 L58.94,42.70 L66.65,21.55 L74.65,42.70 L75.40,42.70 C79.69,29.60 80.05,28.55 85.60,13.55 C86.55,10.95 87.10,10.50 89.75,10.00 L89.75,9.05 Z M103.75,42.15 L118.60,42.15 L118.60,41.20 C114.50,41.10 113.80,40.40 113.70,36.70 L113.70,14.50 C113.80,10.75 114.45,10.15 118.60,10.00 L118.60,9.05 L103.75,9.05 L103.75,10.00 C108.00,10.25 108.55,10.75 108.60,14.50 L108.60,36.70 C108.55,40.50 107.95,41.05 103.75,41.20 L103.75,42.15 Z M120.40,42.15 L131.00,42.15 L131.00,41.40 C128.50,41.25 127.70,40.60 127.70,38.80 L127.70,24.75 C130.10,22.50 131.20,21.90 132.85,21.90 C135.29,21.90 136.50,23.45 136.50,26.75 L136.50,37.20 C136.40,40.45 135.79,41.25 133.35,41.40 L133.35,42.15 L143.75,42.15 L143.75,41.40 C141.29,41.15 140.75,40.55 140.70,38.10 L140.70,26.65 C140.70,21.95 138.50,19.15 134.79,19.15 C132.50,19.15 130.95,20.00 127.54,23.20 L127.54,19.25 L127.20,19.15 C124.60,20.10 122.90,20.65 120.29,21.40 L120.29,22.25 C120.65,22.10 121.10,22.05 121.65,22.05 C123.04,22.05 123.50,22.80 123.50,25.25 L123.50,37.65 C123.45,40.60 122.90,41.25 120.40,41.40 L120.40,42.15 Z M160.25,26.45 L160.04,19.60 L159.50,19.60 C159.25,20.00 159.00,20.15 158.70,20.15 C158.40,20.15 157.90,20.05 157.35,19.80 C156.20,19.40 155.04,19.15 153.85,19.15 C149.90,19.15 147.04,21.75 147.04,25.35 C147.04,28.15 148.65,30.15 152.90,32.55 L155.79,34.20 C157.54,35.20 158.40,36.40 158.40,37.95 C158.40,40.15 156.79,41.55 154.25,41.55 C150.79,41.55 149.04,39.65 147.90,34.55 L147.10,34.55 L147.10,42.35 L147.75,42.35 C148.10,41.85 148.29,41.75 148.90,41.75 C149.45,41.75 150.04,41.85 151.20,42.15 C152.54,42.45 153.85,42.65 154.85,42.65 C158.75,42.65 161.90,39.75 161.90,36.25 C161.90,33.75 160.70,32.10 157.70,30.30 L152.29,27.10 C150.90,26.25 150.15,25.05 150.15,23.70 C150.15,21.65 151.70,20.30 154.00,20.30 C156.85,20.30 158.35,21.95 159.50,26.45 L160.25,26.45 Z M164.74,42.15 L176.60,42.15 L176.60,41.40 C173.30,41.15 172.95,40.70 172.90,37.05 L172.90,19.30 L172.70,19.15 L164.95,21.90 L164.95,22.65 L165.35,22.60 C165.95,22.50 166.55,22.45 167.05,22.45 C168.24,22.45 168.70,23.25 168.70,25.45 L168.70,37.05 C168.60,40.75 168.15,41.25 164.74,41.40 L164.74,42.15 Z M170.35,8.00 C168.99,8.00 167.85,9.15 167.85,10.55 C167.85,12.00 168.95,13.10 170.35,13.10 C171.85,13.10 172.95,12.00 172.95,10.55 C172.95,9.10 171.80,8.00 170.35,8.00 Z M201.35,22.75 L201.35,20.80 L197.50,20.80 C196.45,20.80 195.75,20.65 194.75,20.30 L193.64,19.90 C192.35,19.40 190.95,19.15 189.64,19.15 C185.00,19.15 181.30,22.70 181.30,27.30 C181.30,30.45 182.60,32.35 185.95,34.00 L184.64,35.20 C183.60,36.20 183.00,36.75 182.85,36.95 C181.80,38.05 181.50,38.60 181.50,39.45 C181.50,40.55 182.05,41.10 184.14,42.10 C180.55,44.70 179.25,46.35 179.25,48.20 C179.25,50.85 183.10,53.05 187.89,53.05 C191.64,53.05 195.55,51.75 198.14,49.65 C200.05,48.10 200.89,46.50 200.89,44.60 C200.89,41.50 198.55,39.45 194.85,39.25 L188.39,38.95 C185.70,38.85 184.50,38.40 184.50,37.60 C184.50,36.60 186.14,34.85 187.50,34.45 C189.30,34.60 190.25,34.70 190.35,34.70 C192.20,34.70 194.20,33.95 195.75,32.60 C197.39,31.20 198.14,29.45 198.14,26.95 C198.14,25.50 197.89,24.35 197.20,22.75 L201.35,22.75 Z M185.20,42.25 C186.89,42.60 190.80,42.90 193.35,42.90 C197.85,42.90 199.50,43.55 199.50,45.35 C199.50,48.25 195.70,50.20 190.05,50.20 C185.60,50.20 182.75,48.75 182.75,46.55 C182.75,45.40 183.20,44.65 185.20,42.25 Z M185.45,25.25 C185.45,22.30 186.85,20.55 189.14,20.55 C190.70,20.55 192.00,21.40 192.80,22.90 C193.75,24.65 194.30,26.90 194.30,28.90 C194.30,31.70 192.89,33.45 190.60,33.45 C187.50,33.45 185.45,30.20 185.45,25.40 L185.45,25.25 Z M227.20,41.40 C224.50,40.95 224.25,40.60 224.20,37.05 L224.20,27.10 C224.20,21.85 222.14,19.15 218.05,19.15 C215.10,19.15 213.00,20.35 210.70,23.35 L210.70,8.15 L210.45,8.00 C208.70,8.60 207.45,9.00 204.70,9.80 L203.35,10.20 L203.35,11.00 C203.55,10.95 203.64,10.95 203.95,10.95 C206.10,10.95 206.50,11.35 206.50,13.50 L206.50,37.05 C206.39,40.65 206.14,41.05 203.30,41.40 L203.30,42.15 L214.10,42.15 L214.10,41.40 C211.20,41.15 210.80,40.60 210.70,37.05 L210.70,25.00 C212.80,22.70 214.30,21.85 216.30,21.85 C218.75,21.85 220.00,23.65 220.00,27.15 L220.00,37.05 C219.89,40.60 219.45,41.15 216.60,41.40 L216.60,42.15 L227.20,42.15 L227.20,41.40 Z M240.60,19.65 L235.55,19.65 L235.55,13.85 C235.55,13.35 235.45,13.20 235.20,13.20 C232.30,17.40 230.80,19.10 229.35,19.95 C228.80,20.30 228.50,20.60 228.50,20.90 C228.50,21.05 228.55,21.15 228.70,21.25 L231.35,21.25 L231.35,36.30 C231.35,40.50 232.85,42.65 235.80,42.65 C238.25,42.65 240.14,41.45 241.80,38.85 L241.14,38.30 C240.05,39.60 239.25,40.05 238.14,40.05 C236.30,40.05 235.55,38.70 235.55,35.55 L235.55,21.25 L240.60,21.25 L240.60,19.65 Z" fill="#edeff2"/></svg>