<svg xmlns="http://www.w3.org/2000/svg" viewBox="0 0 153 44" width="153" height="44"><g transform="translate(1,3) scale(0.60)"><rect width="64" height="64" rx="14" fill="#14263B"/><g fill="none" stroke="#FFFFFF" stroke-width="4.0" stroke-linecap="round" stroke-linejoin="round"><path d="M15 19 V45 M27 19 V45 M15 32 H27"/><path d="M33 19 L37.5 45 L42 30 L46.5 45 L51 19"/></g><path d="M24 53 H44" fill="none" stroke="#2563EB" stroke-width="3" stroke-linecap="round"/></g><path transform="translate(46.06,33.0) scale(0.3,-0.3)" d="M9.81,72.91 L19.67,72.91 L19.67,0.00 L9.81,0.00 L9.81,72.91 Z M84.38,33.02 L84.38,0.00 L75.40,0.00 L75.40,32.72 Q75.40,40.48 72.37,44.33 Q69.34,48.19 63.29,48.19 Q56.01,48.19 51.80,43.55 Q47.60,38.92 47.60,30.91 L47.60,0.00 L38.57,0.00 L38.57,54.69 L47.60,54.69 L47.60,46.19 Q50.84,51.12 55.20,53.56 Q59.57,56.00 65.29,56.00 Q74.71,56.00 79.54,50.17 Q84.38,44.34 84.38,33.02 Z M137.15,53.08 L137.15,44.58 Q133.36,46.53 129.25,47.50 Q125.15,48.48 120.75,48.48 Q114.06,48.48 110.71,46.44 Q107.37,44.39 107.37,40.28 Q107.37,37.16 109.76,35.38 Q112.15,33.59 119.39,31.98 L122.46,31.30 Q132.03,29.25 136.06,25.52 Q140.09,21.78 140.09,15.09 Q140.09,7.47 134.06,3.02 Q128.03,-1.42 117.48,-1.42 Q113.09,-1.42 108.32,-0.56 Q103.56,0.30 98.29,2.00 L98.29,11.28 Q103.28,8.69 108.11,7.39 Q112.93,6.11 117.68,6.11 Q124.03,6.11 127.43,8.28 Q130.86,10.45 130.86,14.41 Q130.86,18.06 128.39,20.02 Q125.93,21.97 117.57,23.78 L114.45,24.52 Q106.11,26.27 102.39,29.91 Q98.68,33.55 98.68,39.89 Q98.68,47.61 104.15,51.80 Q109.62,56.00 119.68,56.00 Q124.65,56.00 129.04,55.27 Q133.45,54.55 137.15,53.08 Z M154.39,54.69 L163.38,54.69 L163.38,0.00 L154.39,0.00 L154.39,54.69 Z M154.39,75.98 L163.38,75.98 L163.38,64.59 L154.39,64.59 L154.39,75.98 Z M218.16,27.98 Q218.16,37.75 214.13,43.11 Q210.11,48.48 202.83,48.48 Q195.61,48.48 191.58,43.11 Q187.55,37.75 187.55,27.98 Q187.55,18.27 191.58,12.89 Q195.61,7.52 202.83,7.52 Q210.11,7.52 214.13,12.89 Q218.16,18.27 218.16,27.98 Z M227.14,6.78 Q227.14,-7.17 220.94,-13.98 Q214.75,-20.80 201.96,-20.80 Q197.22,-20.80 193.02,-20.09 Q188.82,-19.39 184.86,-17.92 L184.86,-9.19 Q188.82,-11.33 192.68,-12.34 Q196.54,-13.38 200.54,-13.38 Q209.38,-13.38 213.77,-8.77 Q218.16,-4.16 218.16,5.17 L218.16,9.62 Q215.38,4.78 211.04,2.39 Q206.69,0.00 200.63,0.00 Q190.58,0.00 184.43,7.66 Q178.27,15.33 178.27,27.98 Q178.27,40.67 184.43,48.33 Q190.58,56.00 200.63,56.00 Q206.69,56.00 211.04,53.61 Q215.38,51.22 218.16,46.39 L218.16,54.69 L227.14,54.69 L227.14,6.78 Z M291.12,33.02 L291.12,0.00 L282.14,0.00 L282.14,32.72 Q282.14,40.48 279.11,44.33 Q276.07,48.19 270.03,48.19 Q262.75,48.19 258.54,43.55 Q254.34,38.92 254.34,30.91 L254.34,0.00 L245.31,0.00 L245.31,75.98 L254.34,75.98 L254.34,46.19 Q257.57,51.12 261.93,53.56 Q266.31,56.00 272.03,56.00 Q281.45,56.00 286.28,50.17 Q291.12,44.34 291.12,33.02 Z M317.92,70.22 L317.92,54.69 L336.42,54.69 L336.42,47.70 L317.92,47.70 L317.92,18.02 Q317.92,11.33 319.75,9.42 Q321.58,7.52 327.20,7.52 L336.42,7.52 L336.42,0.00 L327.20,0.00 Q316.80,0.00 312.84,3.88 Q308.89,7.77 308.89,18.02 L308.89,47.70 L302.30,47.70 L302.30,54.69 L308.89,54.69 L308.89,70.22 L317.92,70.22 Z" fill="#14263B"/></svg>